<svg xmlns="http://www.w3.org/2000/svg" viewBox="-4 -4 528 644" xmlns:c2pa="http://c2pa.org/manifest"><metadata><c2pa:manifest>AAAWgmp1bWIAAAAeanVtZGMycGEAEQAQgAAAqgA4m3EDYzJwYQAAABZcanVtYgAAAEdqdW1kYzJtYQARABCAAACqADibcQN1cm46YzJwYTplZDdmNGMzYy1jMjk3LTQ3YTgtYjU0Ni1hN2Q5ODJjMjFkOWUAAAADl2p1bWIAAAApanVtZGMyYXMAEQAQgAAAqgA4m3EDYzJwYS5hc3NlcnRpb25zAAAAALxqdW1iAAAARGp1bWRjYm9yABEAEIAAAKoAOJtxE2MycGEuaW5ncmVkaWVudC52MwAAAAAYYzJzaPoCXReNnaqE45chq8vpe30AAABwY2JvcqNpZGM6Zm9ybWF0bWltYWdlL3N2Zyt4bWxqaW5zdGFuY2VJRHgseG1wOmlpZDowZDNlNThjZi04MDIxLTQwY2UtYTA2NC04ZmE3ZmQwOGFhYmVscmVsYXRpb25zaGlwaHBhcmVudE9mAAAB4mp1bWIAAABBanVtZGNib3IAEQAQgAAAqgA4m3ETYzJwYS5hY3Rpb25zLnYyAAAAABhjMnNo5LtWy+uYVrRfgtoN8et2IwAAAZljYm9yomdhY3Rpb25zgqJmYWN0aW9ua2MycGEub3BlbmVkanBhcmFtZXRlcnOha2luZ3JlZGllbnRzgaJjdXJseC1zZWxmI2p1bWJmPWMycGEuYXNzZXJ0aW9ucy9jMnBhLmluZ3JlZGllbnQudjNkaGFzaFggkp8o4UMaDr/bvMRSLJYEcrkSnirwE0mNRJ3oqyAvlYmkZmFjdGlvbngdY29tLmFudGhyb3BpYy5jbGF1ZGUucHJvdmlkZWRqcGFyYW1ldGVyc6F4H2NvbS5hbnRocm9waWMub3JpZ2luLWNvbmZpZGVuY2VndW5rbm93bmtkZXNjcmlwdGlvbnhmQ2xhdWRlIHByb3ZpZGVkIHRoaXMgZmlsZSBhdCB0aGUgcmVxdWVzdCBvZiBhIHVzZXIgYW5kIG1heSBoYXZlIGNyZWF0ZWQgb3IgbW9kaWZpZWQgdGhlIGZpbGUgY29udGVudHMubXNvZnR3YXJlQWdlbnShZG5hbWVmQ2xhdWRlcmFsbEFjdGlvbnNJbmNsdWRlZPUAAADIanVtYgAAAEBqdW1kY2JvcgARABCAAACqADibcRNjMnBhLmhhc2guZGF0YQAAAAAYYzJzaGvIoIwzmbnrU2WMxRLNOtIAAACAY2JvcqVjYWxnZnNoYTI1NmNwYWRNAAAAAAAAAAAAAAAAAGRoYXNoWCCYbpoLsIVlpXFkKFDDV+hPiKwr6BQ9S/xeeO6tGe+qe2RuYW1lbmp1bWJmIG1hbmlmZXN0amV4Y2x1c2lvbnOBomVzdGFydBh/Zmxlbmd0aBkeBAAAAj5qdW1iAAAAJ2p1bWRjMmNsABEAEIAAAKoAOJtxA2MycGEuY2xhaW0udjIAAAACD2Nib3KlY2FsZ2ZzaGEyNTZpc2lnbmF0dXJleE1zZWxmI2p1bWJmPS9jMnBhL3VybjpjMnBhOmVkN2Y0YzNjLWMyOTctNDdhOC1iNTQ2LWE3ZDk4MmMyMWQ5ZS9jMnBhLnNpZ25hdHVyZWppbnN0YW5jZUlEeCx4bXA6aWlkOmM2ZjQ5NDIwLTBhOGItNGQ4MS1hNTJiLTdkYTNkNjQwMjhjOXJjcmVhdGVkX2Fzc2VydGlvbnODomN1cmx4LXNlbGYjanVtYmY9YzJwYS5hc3NlcnRpb25zL2MycGEuaW5ncmVkaWVudC52M2RoYXNoWCCSnyjhQxoOv9u8xFIslgRyuRKeKvATSY1EneirIC+ViaJjdXJseCpzZWxmI2p1bWJmPWMycGEuYXNzZXJ0aW9ucy9jMnBhLmFjdGlvbnMudjJkaGFzaFggf7IcAsyJpzydBXwd8QOWa9htcU/kSbuJaZE8wOxmWIuiY3VybHgpc2VsZiNqdW1iZj1jMnBhLmFzc2VydGlvbnMvYzJwYS5oYXNoLmRhdGFkaGFzaFggeqQlI5JMu7cx3E6oCpwLFtXvcD6go6/6KpvHX4xiGP90Y2xhaW1fZ2VuZXJhdG9yX2luZm+jZG5hbWVvQW50aHJvcGljIEZpbGVzZ3ZlcnNpb25lMS4wLjBrc3BlY1ZlcnNpb25lMi40LjAAABA4anVtYgAAAChqdW1kYzJjcwARABCAAACqADibcQNjMnBhLnNpZ25hdHVyZQAAABAIY2JvctKEWQISogEmGCFZAgowggIGMIIBjaADAgECAhRA5aAK7sI50L64g/oGQgU9Z1UTADAKBggqhkjOPQQDAzBJMRcwFQYDVQQKEw5BbnRocm9waWMsIFBCQzEuMCwGA1UEAxMlQW50aHJvcGljIENvbnRlbnQgQ3JlZGVudGlhbHMgUm9vdCBDQTAeFw0yNjA4MDcxODQzNTZaFw0yODA4MDYxOTQzNTZaMEQxFzAVBgNVBAoTDkFudGhyb3BpYywgUEJDMSkwJwYDVQQDEyBBbnRocm9waWMgQ2xhdWRlIENvbnRlbnQgU2lnbmluZzBZMBMGByqGSM49AgEGCCqGSM49AwEHA0IABJh6CmvLUBgFFNU0vUKlOVtE6djd17L5SuwX0LemFisBM3dkd/3cyjxFA3Qo5S46fX0/ihY0VZ7mfb9KF703t5OjWDBWMA4GA1UdDwEB/wQEAwIHgDAVBgNVHSUEDjAMBgorBgEEAYPoXgIBMAwGA1UdEwEB/wQCMAAwHwYDVR0jBBgwFoAUzlHiBIFOZFsj+OPEz5o+nMHXXMIwCgYIKoZIzj0EAwMDZwAwZAIwMXMdFJ4BetLLVY7ORuE9noqbbAZOZn/aArXyTwFAZfKrPzxF2vPoJNf1+UCdg1XGAjBwX1zd9WGqYkqmL5SFqw1QySjr1zJfpJM9+1rdDwSPLMOPOjKuiXjoU/pUUeG9RwmhY3BhZFkNngAAAAAAAAAAAAAAAAAAAAAAAAAAAAAAAAAAAAAAAAAAAAAAAAAAAAAAAAAAAAAAAAAAAAAAAAAAAAAAAAAAAAAAAAAAAAAAAAAAAAAAAAAAAAAAAAAAAAAAAAAAAAAAAAAAAAAAAAAAAAAAAAAAAAAAAAAAAAAAAAAAAAAAAAAAAAAAAAAAAAAAAAAAAAAAAAAAAAAAAAAAAAAAAAAAAAAAAAAAAAAAAAAAAAAAAAAAAAAAAAAAAAAAAAAAAAAAAAAAAAAAAAAAAAAAAAAAAAAAAAAAAAAAAAAAAAAAAAAAAAAAAAAAAAAAAAAAAAAAAAAAAAAAAAAAAAAAAAAAAAAAAAAAAAAAAAAAAAAAAAAAAAAAAAAAAAAAAAAAAAAAAAAAAAAAAAAAAAAAAAAAAAAAAAAAAAAAAAAAAAAAAAAAAAAAAAAAAAAAAAAAAAAAAAAAAAAAAAAAAAAAAAAAAAAAAAAAAAAAAAAAAAAAAAAAAAAAAAAAAAAAAAAAAAAAAAAAAAAAAAAAAAAAAAAAAAAAAAAAAAAAAAAAAAAAAAAAAAAAAAAAAAAAAAAAAAAAAAAAAAAAAAAAAAAAAAAAAAAAAAAAAAAAAAAAAAAAAAAAAAAAAAAAAAAAAAAAAAAAAAAAAAAAAAAAAAAAAAAAAAAAAAAAAAAAAAAAAAAAAAAAAAAAAAAAAAAAAAAAAAAAAAAAAAAAAAAAAAAAAAAAAAAAAAAAAAAAAAAAAAAAAAAAAAAAAAAAAAAAAAAAAAAAAAAAAAAAAAAAAAAAAAAAAAAAAAAAAAAAAAAAAAAAAAAAAAAAAAAAAAAAAAAAAAAAAAAAAAAAAAAAAAAAAAAAAAAAAAAAAAAAAAAAAAAAAAAAAAAAAAAAAAAAAAAAAAAAAAAAAAAAAAAAAAAAAAAAAAAAAAAAAAAAAAAAAAAAAAAAAAAAAAAAAAAAAAAAAAAAAAAAAAAAAAAAAAAAAAAAAAAAAAAAAAAAAAAAAAAAAAAAAAAAAAAAAAAAAAAAAAAAAAAAAAAAAAAAAAAAAAAAAAAAAAAAAAAAAAAAAAAAAAAAAAAAAAAAAAAAAAAAAAAAAAAAAAAAAAAAAAAAAAAAAAAAAAAAAAAAAAAAAAAAAAAAAAAAAAAAAAAAAAAAAAAAAAAAAAAAAAAAAAAAAAAAAAAAAAAAAAAAAAAAAAAAAAAAAAAAAAAAAAAAAAAAAAAAAAAAAAAAAAAAAAAAAAAAAAAAAAAAAAAAAAAAAAAAAAAAAAAAAAAAAAAAAAAAAAAAAAAAAAAAAAAAAAAAAAAAAAAAAAAAAAAAAAAAAAAAAAAAAAAAAAAAAAAAAAAAAAAAAAAAAAAAAAAAAAAAAAAAAAAAAAAAAAAAAAAAAAAAAAAAAAAAAAAAAAAAAAAAAAAAAAAAAAAAAAAAAAAAAAAAAAAAAAAAAAAAAAAAAAAAAAAAAAAAAAAAAAAAAAAAAAAAAAAAAAAAAAAAAAAAAAAAAAAAAAAAAAAAAAAAAAAAAAAAAAAAAAAAAAAAAAAAAAAAAAAAAAAAAAAAAAAAAAAAAAAAAAAAAAAAAAAAAAAAAAAAAAAAAAAAAAAAAAAAAAAAAAAAAAAAAAAAAAAAAAAAAAAAAAAAAAAAAAAAAAAAAAAAAAAAAAAAAAAAAAAAAAAAAAAAAAAAAAAAAAAAAAAAAAAAAAAAAAAAAAAAAAAAAAAAAAAAAAAAAAAAAAAAAAAAAAAAAAAAAAAAAAAAAAAAAAAAAAAAAAAAAAAAAAAAAAAAAAAAAAAAAAAAAAAAAAAAAAAAAAAAAAAAAAAAAAAAAAAAAAAAAAAAAAAAAAAAAAAAAAAAAAAAAAAAAAAAAAAAAAAAAAAAAAAAAAAAAAAAAAAAAAAAAAAAAAAAAAAAAAAAAAAAAAAAAAAAAAAAAAAAAAAAAAAAAAAAAAAAAAAAAAAAAAAAAAAAAAAAAAAAAAAAAAAAAAAAAAAAAAAAAAAAAAAAAAAAAAAAAAAAAAAAAAAAAAAAAAAAAAAAAAAAAAAAAAAAAAAAAAAAAAAAAAAAAAAAAAAAAAAAAAAAAAAAAAAAAAAAAAAAAAAAAAAAAAAAAAAAAAAAAAAAAAAAAAAAAAAAAAAAAAAAAAAAAAAAAAAAAAAAAAAAAAAAAAAAAAAAAAAAAAAAAAAAAAAAAAAAAAAAAAAAAAAAAAAAAAAAAAAAAAAAAAAAAAAAAAAAAAAAAAAAAAAAAAAAAAAAAAAAAAAAAAAAAAAAAAAAAAAAAAAAAAAAAAAAAAAAAAAAAAAAAAAAAAAAAAAAAAAAAAAAAAAAAAAAAAAAAAAAAAAAAAAAAAAAAAAAAAAAAAAAAAAAAAAAAAAAAAAAAAAAAAAAAAAAAAAAAAAAAAAAAAAAAAAAAAAAAAAAAAAAAAAAAAAAAAAAAAAAAAAAAAAAAAAAAAAAAAAAAAAAAAAAAAAAAAAAAAAAAAAAAAAAAAAAAAAAAAAAAAAAAAAAAAAAAAAAAAAAAAAAAAAAAAAAAAAAAAAAAAAAAAAAAAAAAAAAAAAAAAAAAAAAAAAAAAAAAAAAAAAAAAAAAAAAAAAAAAAAAAAAAAAAAAAAAAAAAAAAAAAAAAAAAAAAAAAAAAAAAAAAAAAAAAAAAAAAAAAAAAAAAAAAAAAAAAAAAAAAAAAAAAAAAAAAAAAAAAAAAAAAAAAAAAAAAAAAAAAAAAAAAAAAAAAAAAAAAAAAAAAAAAAAAAAAAAAAAAAAAAAAAAAAAAAAAAAAAAAAAAAAAAAAAAAAAAAAAAAAAAAAAAAAAAAAAAAAAAAAAAAAAAAAAAAAAAAAAAAAAAAAAAAAAAAAAAAAAAAAAAAAAAAAAAAAAAAAAAAAAAAAAAAAAAAAAAAAAAAAAAAAAAAAAAAAAAAAAAAAAAAAAAAAAAAAAAAAAAAAAAAAAAAAAAAAAAAAAAAAAAAAAAAAAAAAAAAAAAAAAAAAAAAAAAAAAAAAAAAAAAAAAAAAAAAAAAAAAAAAAAAAAAAAAAAAAAAAAAAAAAAAAAAAAAAAAAAAAAAAAAAAAAAAAAAAAAAAAAAAAAAAAAAAAAAAAAAAAAAAAAAAAAAAAAAAAAAAAAAAAAAAAAAAAAAAAAAAAAAAAAAAAAAAAAAAAAAAAAAAAAAAAAAAAAAAAAAAAAAAAAAAAAAAAAAAAAAAAAAAAAAAAAAAAAAAAAAAAAAAAAAAAAAAAAAAAAAAAAAAAAAAAAAAAAAAAAAAAAAAAAAAAAAAAAAAAAAAAAAAAAAAAAAAAAAAAAAAAAAAAAAAAAAAAAAAAAAAAAAAAAAAAAAAAAAAAAAAAAAAAAAAAAAAAAAAAAAAAAAAAAAAAAAAAAAAAAAAAAAAAAAAAAAAAAAAAAAAAAAAAAAAAAAAAAAAAAAAAAAAAAAAAAAAAAAAAAAAAAAAAAAAAAAAAAAAAAAAAAAAAAAAAAAAAAAAAAAAAAAAAAAAAAAAAAAAAAAAAAAAAAAAAAAAAAAAAAAAAAAAAAAAAAAAAAAAAAAAAAAAAAAAAAAAAAAAAAAAAAAAAAAAAAAAAAAAAAAAAAAAAAAAAAAAAAAAAAAAAAAAAAAAAAAAAAAAAAAAAAAAAAAAAAAAAAAAAAAAAAAAAAAAAAAAAAAAAAAAAAAAAAAAAAAAAAAAAAAAAAAAAAAAAAAAAAAAAAAAAAAAAAAAAAAAAAAAAAAAAAAAAAAAAAAAAAAAAAAAAAAAAAAAAAAAAAAAAAAAAAAAAAAAAAAAAAAAAAAAAAAAAAAAAAAAAAAAAAAAAAAAAAAAAAAAAAAAAAAAAAAAAAAAAAAAAAAAAAAAAAAAAAAAAAAAAAAAAAAAAAAAAAAAAAAAAAAAAAAAAAAAAAAAAAAAAAAAAAAAAAAAAAAAAAAAAAAAAAAAAAAAAAAAAAAAAAAAAAAAAAAAAAAAAAAAAAAAAAAAAAAAAAAAAAAAAAAAAAAAAAAAAAAAAAAAAAAAAAAAAAAAAAAAAAAAAAAAAAAAAAAAAAAAAAAAAAAAAAAAAAAAAAAAAAAAAAAAAAAAAAAAAAAAAAAAAAAAAAAAAAAAAAAAAAAAAAAAAAAAAAAAAAAAAAAAAAAAAAAAAAAAAAAAAAAAAAAAAAAAAAAAAAAAAAAAAAAAAAAAAAAAAAAAAAAAAAAAAAAAAAAAAAAAAAAAAAAAAAAAAAAAAAAAAAAAAAAAAAAAAAAAAAAAAAAAAAAAAAAAAAAAAAAAAAAAAAAAAAAAAAAAAAAAAAAAAAAAAAAAAAAAAAAAAAAAAAAAAAAAAAAAAAAAAAAAAAAAAAAAAAAAAAAAAAAAAAAAAAAAAAAAAAAAAAAAAAAAAAAAAAAAAAAAAAAAAAAAAAAAAAAAAAAAAAAAAAAAAAAAAAAAAAAAAAAAAAAAAAAAAAAAAAAAAAAAAAAAAAAAAAAAAAAAAAAAAAAAAAAAAAAAAAAAAAAAAAAAAAAAAAAAAAAAAAAAAAAAAAAAAAAAAAAAAAAAAAAAAAAAAAAAAAAAAAAAAAAAAAAAAAAAAAAAAAAAAAAAAAAAAAAAAAAAAAAAAAAAAAAAAAAAAAAAAAAAAAAAAAAAAAAAAAAAAAAAAAAAAAAAAAAAAAAAAAAAAAAAAAAAAAAAAAAAAAAAAAAAAAAAAAAAAAAAAAAAAPZYQAsd/RiwsS8raW3JEc6WbDnINBDlmF6LVJLRrxHd2lwFzn+/zCawrXzhAESuDTXv10hhbqBLNpBdDUKkCNXiRV4=</c2pa:manifest></metadata><g stroke="#fff" stroke-width="0.7" stroke-linejoin="round"><path fill="#6ae1b3" d="M307,578L306,581L292,581L290,571L289,569L292,565L291,563L292,562L291,560L294,563L302,566L304,570L307,578Z"><title>Abaiara</title></path><path fill="#16ad7b" d="M345,172L350,172L350,175L356,181L338,188L335,189L337,182L338,181L336,173L338,176L340,173L345,172Z"><title>Acarape</title></path><path fill="#098c64" d="M138,3L154,4L159,7L162,5L169,7L175,7L174,6L185,9L181,19L180,28L181,36L179,39L178,44L180,47L178,52L180,56L184,58L189,61L187,66L186,66L167,41L166,36L162,31L159,32L158,31L158,26L156,26L157,24L156,24L157,23L156,22L157,17L159,15L159,13L158,12L153,11L143,11L143,12L137,10L132,10L131,3L138,3Z"><title>Acaraú</title></path><path fill="#0b976b" d="M231,400L232,403L234,404L236,399L242,401L246,400L250,401L251,399L255,399L257,400L257,401L259,401L259,403L260,402L262,403L265,401L267,403L270,402L273,402L274,401L277,400L277,397L282,398L282,397L284,397L286,400L288,399L288,401L289,400L295,402L295,408L293,409L291,413L292,417L285,421L270,418L257,430L255,429L250,433L250,435L244,437L245,443L244,443L243,445L241,443L237,445L237,443L235,442L232,444L229,441L227,443L224,442L221,444L217,444L216,444L214,446L212,436L211,437L211,434L213,429L211,429L211,430L209,431L207,432L206,428L203,428L203,422L201,420L202,419L199,418L198,419L196,416L194,418L191,416L191,415L199,407L199,405L201,404L203,405L206,404L212,399L209,403L211,405L212,403L214,403L218,405L219,402L221,398L227,401L228,399L232,397L231,400Z"><title>Acopiara</title></path><path fill="#1db583" d="M164,446L167,448L168,453L170,455L174,457L172,458L170,464L171,468L174,470L173,472L174,475L172,476L172,478L170,480L172,481L173,482L170,487L172,488L172,487L176,487L178,490L169,499L169,502L164,503L163,505L159,505L161,503L159,501L156,502L155,497L152,499L147,500L144,502L142,502L141,504L139,501L138,503L136,503L134,502L134,504L129,502L124,504L118,494L102,492L97,487L89,487L86,484L87,480L86,477L93,478L94,479L98,478L101,479L106,471L108,471L112,470L120,468L123,463L129,462L131,459L131,457L134,455L133,454L136,454L137,453L139,453L142,450L145,451L145,449L147,451L158,447L159,447L160,446L164,446Z"><title>Aiuaba</title></path><path fill="#1bb381" d="M112,95L117,97L115,99L118,101L115,102L114,105L116,106L114,107L113,107L113,108L111,109L105,108L103,106L104,105L102,105L100,103L102,103L102,100L104,99L103,98L104,97L106,97L106,96L111,91L112,91L113,93L112,95Z"><title>Alcântaras</title></path><path fill="#0d9a6e" d="M225,523L223,524L222,527L219,527L220,528L217,530L213,528L208,529L209,531L203,529L208,527L213,522L216,523L216,524L222,521L225,523Z"><title>Altaneira</title></path><path fill="#44d19e" d="M378,322L384,328L387,328L388,326L389,326L394,328L394,326L398,326L407,322L403,331L442,332L439,340L435,340L433,344L428,347L427,350L425,351L423,357L417,361L409,361L408,359L405,359L406,358L401,356L400,357L399,356L399,357L397,357L396,358L394,355L393,352L373,355L372,345L370,344L369,339L373,336L374,333L372,331L374,329L374,326L375,324L377,323L378,322Z"><title>Alto Santo</title></path><path fill="#078660" d="M220,29L225,30L228,35L233,37L231,43L226,46L225,46L219,47L215,57L211,58L215,67L210,71L210,76L208,79L206,84L204,85L183,81L179,82L174,82L178,78L179,73L185,69L187,64L189,63L191,55L189,53L193,49L194,46L194,42L214,29L213,27L216,26L220,29Z"><title>Amontada</title></path><path fill="#85e9c1" d="M181,488L182,490L185,492L186,490L193,486L193,488L198,487L198,491L179,504L177,503L172,505L171,506L171,508L168,510L159,506L159,505L163,505L164,503L169,502L169,499L178,490L177,488L180,486L180,488L181,488Z"><title>Antonina do Norte</title></path><path fill="#2cc28f" d="M260,135L264,144L265,142L268,141L275,135L276,137L275,140L279,144L278,147L279,149L279,152L278,156L272,162L262,163L247,148L245,152L242,152L242,149L248,135L250,135L253,137L255,135L257,134L259,131L260,135Z"><title>Apuiarés</title></path><path fill="#067756" d="M375,129L381,137L389,144L389,145L388,144L393,145L399,153L398,155L395,155L388,153L381,160L380,162L379,161L364,159L360,157L363,154L363,144L366,142L368,143L369,141L371,142L373,138L375,137L375,134L374,132L375,129Z"><title>Aquiraz</title></path><path fill="#098d65" d="M458,207L461,214L472,225L477,230L484,232L482,242L489,251L494,250L499,250L501,248L506,250L507,251L507,259L472,268L478,253L475,248L474,242L458,242L452,239L451,237L448,235L446,237L438,235L428,234L428,232L430,231L430,229L428,222L429,222L430,219L434,218L445,220L448,215L453,215L456,210L454,207L455,206L456,205L458,207Z"><title>Aracati</title></path><path fill="#0d9c6f" d="M332,190L334,196L338,200L341,199L344,204L349,203L351,199L355,200L360,198L355,204L352,205L347,209L347,212L350,217L349,219L346,221L351,235L355,236L349,239L347,239L348,238L345,237L344,234L343,235L341,233L339,228L332,230L334,218L330,218L330,217L328,216L327,217L324,216L323,211L325,207L322,209L322,197L324,191L328,192L330,190L332,190Z"><title>Aracoiaba</title></path><path fill="#21b986" d="M96,240L97,243L97,244L98,251L95,257L91,260L87,257L82,260L82,257L80,256L80,255L75,253L72,250L67,250L67,246L69,243L69,241L74,242L77,240L86,241L94,240L95,238L96,240Z"><title>Ararendá</title></path><path fill="#6be1b4" d="M158,537L160,542L171,546L178,547L188,539L190,540L192,545L191,570L187,571L178,575L167,576L162,576L150,571L147,567L144,560L146,556L146,553L144,550L145,546L147,544L148,542L155,538L157,533L158,537Z"><title>Araripe</title></path><path fill="#0a9067" d="M293,196L295,197L296,196L299,197L300,199L304,199L305,207L303,208L302,212L301,212L300,215L301,217L299,216L298,211L298,210L296,208L296,206L293,205L292,203L291,203L290,201L290,200L291,201L294,201L294,199L295,199L293,198L294,197L293,196Z"><title>Aratuba</title></path><path fill="#6ce2b4" d="M191,415L190,420L191,422L188,425L188,426L184,427L179,430L177,429L176,430L175,435L174,437L171,437L172,440L170,440L169,444L167,446L169,447L167,448L163,446L160,446L159,447L158,447L147,451L145,449L145,451L142,450L139,453L137,453L127,441L140,428L141,428L146,421L148,419L150,420L152,419L153,420L157,419L158,417L162,416L167,417L172,414L172,415L175,414L176,415L185,415L189,412L191,415Z"><title>Arneiroz</title></path><path fill="#0e9e70" d="M192,503L193,505L192,507L206,503L210,503L212,501L214,501L215,502L216,506L221,505L223,507L222,509L219,510L219,516L221,514L223,514L224,515L226,514L228,515L227,517L222,521L216,524L216,523L213,522L208,527L203,529L209,531L207,532L206,535L205,535L204,531L195,534L193,536L191,534L190,536L184,538L184,529L182,528L178,529L168,528L167,526L169,523L170,517L167,517L162,514L166,510L171,508L171,506L172,505L177,503L179,504L189,498L192,501L192,503Z"><title>Assaré</title></path><path fill="#067756" d="M316,510L325,510L325,511L330,511L329,516L332,517L333,520L331,521L334,523L334,525L333,526L329,528L320,525L314,538L307,538L299,547L296,545L293,546L291,548L290,547L288,547L285,544L288,538L284,535L282,528L284,526L286,525L289,523L291,520L293,519L293,517L299,515L300,512L305,511L305,510L308,511L316,510Z"><title>Aurora</title></path><path fill="#18b07e" d="M327,485L342,490L345,494L346,497L342,497L341,498L337,499L333,497L330,492L327,493L321,491L320,489L320,487L323,485L327,485Z"><title>Baixio</title></path><path fill="#0c986c" d="M334,289L340,289L346,292L350,292L350,296L342,305L339,305L339,302L335,302L331,302L326,305L321,313L312,318L311,328L312,331L313,332L314,334L312,334L311,338L305,342L302,340L301,341L298,338L298,340L295,341L293,338L295,329L292,327L295,314L298,311L297,308L299,305L296,305L295,304L291,298L292,296L295,296L300,298L306,295L314,298L326,285L328,287L332,287L334,289Z"><title>Banabuiú</title></path><path fill="#2ec390" d="M273,556L273,563L274,564L270,578L270,589L256,585L256,606L254,604L250,604L249,601L246,600L246,571L259,562L273,556Z"><title>Barbalha</title></path><path fill="#46d29f" d="M359,198L355,200L351,199L349,203L344,204L340,199L340,193L342,187L356,181L358,186L358,192L360,198L359,198Z"><title>Barreira</title></path><path fill="#33c793" d="M327,526L329,528L333,527L343,534L342,536L345,540L342,544L343,547L341,548L342,549L341,552L347,551L347,552L349,552L350,555L346,555L343,557L334,558L330,557L327,555L327,556L324,556L322,558L313,558L308,545L311,542L320,525L327,526Z"><title>Barro</title></path><path fill="#60ddae" d="M24,13L38,14L42,16L44,18L43,20L45,22L43,24L44,27L38,35L40,39L34,43L32,39L31,37L33,36L30,32L29,32L30,30L29,27L22,23L16,23L13,21L13,17L20,12L24,13Z"><title>Barroquinha</title></path><path fill="#0a9167" d="M326,183L327,186L328,185L330,187L328,189L331,190L330,190L328,192L324,191L322,197L322,209L325,207L323,211L324,216L327,217L328,216L330,217L330,218L334,218L331,230L327,225L320,207L313,203L312,203L309,200L312,197L309,196L307,197L309,192L310,192L312,189L313,187L312,186L312,185L315,185L316,187L316,185L317,185L320,180L322,181L322,183L326,183Z"><title>Baturité</title></path><path fill="#067957" d="M412,170L432,189L444,198L447,200L449,202L447,203L443,202L443,203L440,203L439,204L438,202L433,202L433,204L430,206L431,210L431,211L432,210L433,212L431,216L431,218L428,222L429,225L427,226L416,225L414,226L413,229L404,230L397,224L382,214L385,213L385,209L386,207L388,207L390,207L390,204L394,201L396,197L398,178L404,176L407,170L407,167L408,165L412,170Z"><title>Beberibe</title></path><path fill="#2cc28f" d="M144,19L148,21L156,20L156,22L157,23L156,24L157,24L156,26L158,26L158,31L159,32L162,31L167,37L167,41L160,36L158,38L159,40L151,46L148,48L145,47L145,44L140,52L138,51L133,52L132,46L130,44L125,43L116,35L114,21L130,23L130,21L133,22L133,21L135,20L144,19Z"><title>Bela Cruz</title></path><path fill="#098d65" d="M211,241L212,242L210,244L212,247L210,248L211,250L218,251L220,253L220,256L222,258L221,260L225,265L227,270L227,273L225,275L227,277L226,281L223,284L228,289L230,289L236,292L224,309L225,317L223,319L220,319L220,322L214,322L212,324L211,323L207,323L202,327L201,325L200,326L200,325L197,323L193,324L190,327L186,324L184,322L186,319L177,320L177,319L176,320L174,314L171,313L172,310L172,307L175,303L173,300L170,300L168,298L167,299L165,297L157,298L177,288L181,282L181,281L182,281L181,269L191,264L184,257L184,254L186,251L185,248L188,250L192,251L195,244L200,243L203,246L202,240L210,242L211,239L211,241Z"><title>Boa Viagem</title></path><path fill="#39cb97" d="M317,585L330,603L337,606L335,607L334,611L332,610L328,612L325,611L324,613L325,615L324,618L321,618L318,617L317,619L317,622L315,622L316,604L314,605L313,604L309,605L307,604L299,607L298,595L291,589L284,585L291,586L293,584L292,581L309,581L317,585Z"><title>Brejo Santo</title></path><path fill="#07815d" d="M105,8L108,12L112,13L111,20L114,21L116,35L107,29L91,28L73,32L68,28L53,31L40,39L38,35L40,33L40,31L42,30L45,22L43,20L44,18L40,15L41,13L52,13L57,12L58,11L63,11L64,11L65,9L69,10L70,9L72,13L83,8L97,8L106,7L105,8Z"><title>Camocim</title></path><path fill="#0e9d70" d="M156,500L156,502L159,501L161,503L159,506L168,510L162,514L167,517L170,517L168,525L166,526L165,529L163,531L161,528L151,531L145,537L137,538L137,544L122,539L122,538L120,538L124,532L123,530L127,528L124,527L124,511L126,510L131,503L134,504L134,502L136,503L138,503L139,501L141,504L142,502L144,502L147,500L152,499L155,497L156,500Z"><title>Campos Sales</title></path><path fill="#0b976b" d="M219,160L224,161L224,162L226,162L228,164L230,163L233,165L234,165L236,162L238,167L237,167L236,171L232,174L231,179L239,182L239,185L241,188L260,176L272,187L276,188L277,190L286,188L291,189L294,191L298,190L297,192L299,192L299,193L297,196L295,197L293,196L294,197L293,198L295,199L294,199L294,201L291,201L290,200L290,201L291,203L292,203L293,205L296,206L296,208L298,210L292,211L292,219L293,220L294,222L286,230L283,231L280,234L277,232L277,233L274,233L272,232L267,233L264,240L257,244L256,244L257,242L255,241L255,239L254,239L253,238L250,238L249,236L250,232L248,231L248,230L246,226L247,224L242,218L242,215L239,210L238,210L238,212L237,214L236,210L234,210L235,213L231,211L229,213L230,214L230,217L223,214L220,216L220,218L222,219L219,222L215,221L214,220L209,220L207,219L208,215L212,212L211,210L211,206L208,202L210,202L212,200L213,200L214,195L211,193L211,192L212,192L210,189L211,186L206,183L206,180L204,176L206,172L208,172L208,169L210,165L213,164L214,165L214,163L217,161L219,162L219,160Z"><title>Canindé</title></path><path fill="#d7dee8" d="M309,196L312,197L309,200L312,203L313,203L320,207L327,225L324,224L322,225L322,221L319,221L317,217L314,218L312,216L310,217L310,214L309,213L304,214L302,212L303,208L305,207L304,199L309,196Z"><title>Capistrano</title></path><path fill="#46d29f" d="M304,157L307,161L308,165L309,164L310,166L310,168L307,170L307,173L308,175L307,176L305,175L304,177L301,178L301,180L299,180L302,181L303,183L300,184L302,184L303,184L302,185L301,188L300,185L300,186L298,186L299,188L297,188L298,188L296,191L286,188L277,190L276,188L272,187L260,176L262,175L266,170L270,169L276,169L278,163L281,163L280,160L277,158L294,160L299,160L302,151L304,157Z"><title>Caridade</title></path><path fill="#0d9a6e" d="M126,128L127,143L132,156L131,163L119,163L114,158L107,158L96,153L97,149L95,148L96,145L89,142L90,136L92,135L94,131L99,129L101,132L105,135L111,133L117,133L126,128Z"><title>Cariré</title></path><path fill="#10a273" d="M260,517L259,520L260,522L261,526L263,519L271,518L272,519L281,519L287,521L289,523L286,525L284,526L282,528L284,535L288,538L285,544L282,544L278,547L276,544L272,544L273,543L269,540L267,539L265,542L259,541L260,540L258,537L258,535L249,535L250,534L249,533L246,529L248,523L249,523L253,518L260,516L260,517Z"><title>Caririaçu</title></path><path fill="#0d9a6e" d="M252,460L255,462L258,461L259,463L258,463L257,466L260,469L267,468L263,478L265,479L267,481L267,484L266,487L263,488L262,490L260,493L262,495L265,494L265,497L261,499L258,498L257,499L257,497L254,499L252,497L250,499L250,500L247,501L244,499L243,497L240,496L238,500L234,499L232,501L231,501L231,505L230,507L231,508L229,509L229,506L227,506L228,504L225,501L228,496L226,496L227,495L222,495L223,493L219,482L215,483L210,482L215,480L218,480L228,476L227,475L235,472L241,466L245,466L249,460L252,460Z"><title>Cariús</title></path><path fill="#4cd5a3" d="M48,160L60,159L66,165L67,170L56,181L52,176L50,177L44,177L40,175L41,173L38,172L35,167L41,160L45,158L48,160Z"><title>Carnaubal</title></path><path fill="#0e9f71" d="M405,159L408,165L407,167L406,174L404,176L398,178L396,197L394,201L390,204L390,207L388,207L386,207L385,209L385,213L382,214L382,211L371,198L379,194L378,180L380,162L391,165L390,160L394,161L395,155L398,155L399,153L405,159Z"><title>Cascavel</title></path><path fill="#1db583" d="M194,418L196,416L198,419L199,418L202,419L201,420L203,422L203,428L204,429L203,433L201,433L202,435L200,435L200,438L198,439L199,441L196,447L191,448L187,446L187,445L184,444L181,445L179,443L177,444L174,443L170,448L167,448L169,447L167,446L169,444L170,440L172,440L171,437L174,437L175,435L176,430L177,429L179,430L184,427L188,426L188,425L191,422L190,420L191,417L194,418Z"><title>Catarina</title></path><path fill="#18b07e" d="M172,209L177,213L177,217L174,223L172,224L170,223L168,225L164,226L162,228L163,228L164,235L167,237L167,239L170,239L169,240L170,242L164,246L161,252L159,253L158,253L155,250L150,251L144,249L138,243L139,241L135,234L136,232L138,231L138,230L140,228L141,227L144,228L148,226L147,224L148,222L147,222L147,217L144,215L145,213L147,213L146,211L151,210L155,215L161,216L162,215L164,216L166,215L165,214L165,212L169,211L170,209L172,209Z"><title>Catunda</title></path><path fill="#055d45" d="M345,112L353,114L349,115L349,117L351,118L352,120L347,128L346,131L341,133L337,137L334,144L333,143L329,148L326,147L321,151L318,148L309,145L307,142L307,140L305,139L304,135L302,131L305,129L305,125L307,123L308,117L307,116L310,112L312,112L312,110L317,113L323,98L326,95L332,102L339,106L345,112Z"><title>Caucaia</title></path><path fill="#0d9a6e" d="M284,458L284,459L287,461L294,458L312,473L312,478L308,483L305,485L300,485L296,487L295,485L294,486L297,489L291,492L286,491L284,486L280,486L280,483L279,483L281,480L280,479L276,478L273,475L265,473L267,468L274,467L273,464L276,463L276,460L284,458Z"><title>Cedro</title></path><path fill="#5ddcac" d="M30,30L29,32L30,32L33,36L31,37L32,39L34,43L23,49L13,49L12,47L13,45L17,41L17,40L21,38L20,34L22,30L19,23L22,23L29,27L30,30Z"><title>Chaval</title></path><path fill="#13a777" d="M288,232L292,232L293,233L296,232L299,232L304,234L305,235L302,236L302,235L298,235L297,241L293,243L289,247L291,247L293,249L294,248L296,248L297,250L294,252L293,255L292,255L292,256L292,257L290,256L289,258L287,257L287,260L283,265L282,265L282,268L279,270L279,272L277,273L276,272L274,272L273,270L268,266L267,263L264,262L265,259L264,257L261,256L259,254L259,249L266,244L264,242L263,242L258,246L256,244L256,243L257,244L264,240L267,233L272,232L274,233L277,233L277,232L280,234L283,231L287,230L288,232Z"><title>Choró</title></path><path fill="#0a9167" d="M365,181L369,182L372,181L378,180L379,194L371,198L372,200L372,203L362,199L360,198L358,192L358,186L356,181L360,181L361,180L365,181Z"><title>Chorozinho</title></path><path fill="#098f66" d="M82,90L89,92L91,91L94,91L94,93L108,93L106,97L103,98L104,99L102,100L102,103L100,103L102,105L104,105L103,106L104,107L109,109L101,108L96,127L88,128L89,129L85,130L82,135L79,131L81,126L79,123L80,119L83,115L75,106L72,108L69,107L66,110L65,99L71,94L82,90Z"><title>Coreaú</title></path><path fill="#098d65" d="M103,271L107,279L110,279L120,283L122,281L128,289L131,290L126,306L118,311L112,326L110,326L109,327L108,330L97,330L95,333L92,333L92,335L91,336L91,335L87,335L86,338L82,337L81,339L79,339L76,337L72,337L69,339L65,336L63,336L63,333L61,332L60,329L63,329L64,328L61,323L64,317L62,313L62,311L64,310L60,307L63,305L61,302L62,298L59,298L57,296L55,296L54,294L51,292L51,290L50,291L49,288L46,290L43,288L41,284L36,283L38,280L46,280L74,274L88,270L96,275L98,267L103,271Z"><title>Crateús</title></path><path fill="#088a63" d="M239,529L246,529L249,533L250,534L249,535L258,535L258,537L260,540L259,545L256,548L256,554L258,556L259,562L246,571L246,600L243,600L242,595L245,591L245,587L240,586L234,588L231,582L227,582L227,538L230,537L229,534L230,530L238,528L239,529Z"><title>Crato</title></path><path fill="#1fb784" d="M66,191L69,192L70,191L69,190L71,189L73,191L72,192L77,195L78,197L81,197L82,195L82,197L81,198L81,200L80,200L79,203L80,203L78,205L79,206L75,209L67,211L49,209L45,211L37,212L35,211L31,210L31,207L34,198L35,198L52,186L62,188L66,191Z"><title>Croatá</title></path><path fill="#0a9268" d="M124,3L131,3L132,10L137,10L142,12L143,12L143,11L148,11L158,12L159,15L157,17L156,20L148,21L144,19L135,20L133,21L133,22L130,21L130,23L127,23L126,21L124,20L123,15L120,14L121,9L120,3L121,2L124,3Z"><title>Cruz</title></path><path fill="#1db582" d="M267,372L269,373L270,372L273,373L274,373L276,376L279,376L280,377L282,377L279,385L281,386L280,392L281,397L277,397L277,400L274,401L273,402L270,402L267,403L265,401L262,403L260,402L259,403L259,401L256,400L258,396L256,396L258,393L255,391L258,389L258,387L259,387L258,385L262,383L262,382L259,381L261,376L267,372Z"><title>Deputado Irapuan Pinheiro</title></path><path fill="#79e6bb" d="M391,389L394,393L407,393L406,395L401,398L396,402L395,408L392,411L389,413L387,412L385,412L384,411L384,412L381,413L379,410L379,409L376,409L374,404L377,402L376,389L377,392L379,392L388,385L391,389Z"><title>Ererê</title></path><path fill="#07815d" d="M371,141L371,142L369,141L368,143L366,142L363,144L364,138L366,135L371,132L372,129L371,127L374,128L375,135L375,137L373,138L371,141Z"><title>Eusébio</title></path><path fill="#13a777" d="M234,499L238,500L238,504L239,508L242,507L243,510L242,512L243,513L242,515L250,515L253,518L249,523L248,523L246,529L244,529L238,528L230,530L230,533L223,531L224,530L218,531L217,530L220,528L219,527L222,527L223,524L225,523L222,521L223,520L225,519L228,515L226,514L224,515L223,514L221,514L219,516L219,510L222,509L223,507L221,506L219,502L220,502L221,503L226,502L229,509L231,508L231,507L230,507L231,505L231,501L232,501L234,499Z"><title>Farias Brito</title></path><path fill="#0e9e70" d="M162,116L162,123L161,128L162,128L162,129L160,136L161,138L154,147L139,144L137,135L132,136L131,135L134,124L138,126L140,125L139,122L140,121L142,123L142,120L144,122L146,123L148,123L150,122L149,118L147,118L148,114L162,115L162,116Z"><title>Forquilha</title></path><path fill="#065842" d="M356,115L365,117L367,117L367,114L377,130L371,127L372,129L371,132L366,135L364,138L351,130L347,127L352,120L351,118L349,117L349,115L353,115L353,113L356,115Z"><title>Fortaleza</title></path><path fill="#0b956a" d="M447,200L451,202L456,202L456,205L454,207L455,209L456,209L455,211L453,215L448,215L446,217L446,219L443,220L434,218L431,218L431,216L433,212L432,210L431,211L431,210L430,206L433,204L433,202L438,202L439,204L440,203L443,203L443,202L447,203L449,202L447,200Z"><title>Fortim</title></path><path fill="#55d9a8" d="M75,107L83,115L80,119L79,123L80,125L66,124L68,117L67,110L69,107L72,108L74,106L75,107Z"><title>Frecheirinha</title></path><path fill="#0b956a" d="M247,148L262,163L256,163L257,164L256,166L252,165L251,164L237,166L236,162L239,152L241,151L242,152L245,152L247,148Z"><title>General Sampaio</title></path><path fill="#62deaf" d="M83,146L86,148L89,160L92,159L88,169L87,169L84,170L84,169L77,168L73,166L72,165L71,161L72,158L72,154L73,152L72,151L73,147L83,146Z"><title>Graça</title></path><path fill="#0a9067" d="M108,30L111,31L116,35L114,40L106,44L84,33L89,54L88,56L91,57L74,53L73,56L74,56L73,57L75,59L73,60L76,61L75,64L71,66L71,70L68,72L68,73L73,72L75,72L75,74L73,74L71,78L72,81L70,83L69,87L67,88L67,89L69,90L67,92L51,78L46,77L47,76L37,72L34,72L32,63L25,85L24,85L22,88L17,87L15,88L12,88L12,85L9,83L9,79L4,78L2,76L3,72L0,73L13,49L23,49L53,31L68,28L73,32L91,28L107,29L108,30Z"><title>Granja</title></path><path fill="#59daaa" d="M279,511L281,515L281,519L272,519L271,518L263,519L261,525L261,524L259,520L260,516L276,512L279,511Z"><title>Granjeiro</title></path><path fill="#20b885" d="M132,136L137,135L139,144L135,148L132,156L127,143L126,128L129,127L130,133L132,136Z"><title>Groaíras</title></path><path fill="#10a374" d="M346,153L348,155L351,153L355,158L351,159L350,165L355,165L356,167L356,168L350,171L350,172L344,172L340,173L338,176L336,173L333,174L330,173L328,171L328,169L333,168L334,161L337,161L343,157L344,154L346,153Z"><title>Guaiúba</title></path><path fill="#098d64" d="M77,168L84,169L84,170L87,169L88,169L89,172L85,179L79,182L77,185L79,191L77,195L72,192L73,191L71,189L69,190L70,191L68,192L68,191L67,192L62,188L52,186L35,198L34,198L38,192L36,181L40,175L44,177L50,177L52,176L56,181L66,171L71,171L71,170L74,168L77,167L77,168Z"><title>Guaraciaba do Norte</title></path><path fill="#10a374" d="M309,175L309,178L310,178L310,181L314,183L316,187L315,185L312,185L312,186L313,188L310,192L305,178L301,181L299,180L301,180L301,178L304,177L305,175L309,175Z"><title>Guaramiranga</title></path><path fill="#0d9b6e" d="M147,212L147,213L145,213L144,215L147,217L147,222L148,222L147,224L148,226L144,228L141,227L140,228L138,230L138,231L136,232L135,234L131,221L114,215L104,222L103,218L105,215L105,211L108,207L107,204L109,199L112,196L113,193L116,192L117,189L122,184L140,185L138,187L137,195L140,201L145,207L147,212Z"><title>Hidrolândia</title></path><path fill="#07805c" d="M370,160L379,161L380,162L379,170L364,170L361,168L356,168L360,162L360,157L364,159L370,160Z"><title>Horizonte</title></path><path fill="#7fe8be" d="M339,228L341,233L343,235L344,234L345,237L348,238L347,239L354,236L361,237L360,240L362,244L359,247L355,248L355,252L351,256L344,260L344,261L347,267L346,269L339,265L317,269L316,264L312,259L312,255L318,258L320,257L327,245L318,237L320,235L325,236L327,233L329,232L330,230L331,231L332,230L339,228Z"><title>Ibaretama</title></path><path fill="#12a677" d="M69,136L71,137L70,138L71,137L71,139L80,137L78,142L74,142L75,146L73,147L73,150L72,149L66,151L57,150L43,151L41,153L38,150L32,152L30,154L21,156L23,154L22,151L24,148L55,138L61,140L63,138L66,138L66,135L69,136Z"><title>Ibiapina</title></path><path fill="#0a9168" d="M361,263L363,263L366,262L369,262L369,261L372,261L376,270L375,270L374,268L364,271L364,272L365,273L364,275L367,279L365,283L366,288L349,285L348,284L345,283L341,284L342,278L346,274L347,272L346,269L348,268L348,265L353,261L361,263Z"><title>Ibicuitinga</title></path><path fill="#0c976c" d="M507,238L511,240L516,245L520,256L507,259L507,251L506,250L501,248L499,250L494,250L489,251L482,242L484,232L489,230L493,233L507,238Z"><title>Icapuí</title></path><path fill="#12a676" d="M338,416L335,423L336,427L342,429L345,425L350,423L352,424L353,427L356,428L357,431L362,430L361,432L359,433L358,435L355,437L356,440L354,442L354,444L355,446L357,447L355,448L355,449L353,450L352,451L355,453L359,453L361,451L362,453L358,456L356,461L351,467L351,469L349,469L341,473L339,472L335,474L336,476L330,479L328,477L320,477L317,475L313,474L307,468L294,458L287,461L284,459L284,458L286,456L285,454L292,448L295,450L297,449L305,450L304,446L305,445L310,445L313,441L317,443L322,439L325,436L323,432L327,417L329,417L331,418L334,416L335,418L338,416Z"><title>Icó</title></path><path fill="#0a9067" d="M267,429L269,431L265,432L265,435L266,437L284,434L286,436L292,432L294,432L296,439L292,444L290,444L286,451L285,454L286,456L284,458L276,460L276,463L273,464L274,467L260,469L257,466L258,463L259,463L258,461L255,462L254,460L252,461L251,458L251,453L250,451L246,452L243,449L245,443L244,437L250,435L250,433L255,429L257,430L264,424L268,424L268,425L267,429Z"><title>Iguatu</title></path><path fill="#24bb88" d="M154,298L154,299L156,299L157,298L163,297L167,299L168,298L170,300L173,300L175,303L172,307L172,310L171,313L174,314L175,318L174,320L171,322L170,327L164,334L164,344L162,346L160,345L157,345L156,347L149,351L150,353L148,354L149,360L151,364L149,366L147,366L147,367L142,372L138,370L132,370L126,378L117,381L113,380L114,379L112,379L107,382L106,371L108,369L109,370L110,367L106,370L103,369L98,365L100,363L98,363L96,361L99,358L99,356L98,354L100,352L99,349L102,347L100,343L107,332L109,331L109,327L110,326L112,326L118,311L139,297L140,298L144,297L147,298L149,296L150,296L154,298Z"><title>Independência</title></path><path fill="#14aa79" d="M72,250L75,253L80,255L80,256L82,257L82,260L87,257L91,260L93,258L98,251L110,266L98,267L96,275L88,270L74,274L46,280L48,273L54,266L60,262L62,263L69,260L68,259L68,256L67,252L68,252L68,250L72,250Z"><title>Ipaporanga</title></path><path fill="#17ad7c" d="M327,493L330,492L333,497L337,499L341,498L342,497L346,497L350,500L350,502L347,501L348,503L342,507L343,508L342,511L338,512L338,513L331,516L329,516L330,511L325,511L325,510L320,510L326,508L324,500L328,499L323,496L321,491L327,493Z"><title>Ipaumirim</title></path><path fill="#0a9168" d="M91,181L90,182L91,185L90,188L94,189L95,190L97,189L100,191L101,190L108,191L118,189L116,192L113,193L112,196L109,199L109,202L108,202L107,204L108,207L105,211L105,215L103,218L104,222L103,222L101,221L98,217L96,210L93,205L89,212L78,205L80,203L79,203L82,197L82,195L81,197L78,197L77,195L79,191L77,185L79,182L85,179L87,177L92,178L91,181Z"><title>Ipu</title></path><path fill="#098f66" d="M81,206L89,212L93,205L96,210L98,217L101,221L103,222L104,222L104,227L102,229L99,230L94,240L86,241L77,240L74,242L70,241L69,241L69,239L72,236L71,236L67,241L58,241L57,238L56,238L54,234L44,229L40,227L35,227L32,225L30,226L30,224L27,225L25,224L23,223L25,223L27,220L31,210L35,211L37,212L45,211L49,209L67,211L75,209L78,207L79,206L78,205L81,206Z"><title>Ipueiras</title></path><path fill="#36c995" d="M395,360L394,364L396,369L395,369L396,377L399,379L398,381L408,385L409,389L406,391L407,393L394,393L388,385L379,392L377,392L376,390L375,390L375,387L373,388L370,385L368,387L368,388L366,388L369,376L369,375L365,373L367,370L365,371L369,369L370,365L370,366L370,362L373,355L393,352L394,355L396,358L395,360Z"><title>Iracema</title></path><path fill="#07805c" d="M213,109L215,104L215,107L214,112L216,115L218,122L221,124L222,129L216,131L212,136L213,138L212,138L213,140L213,142L214,145L212,148L214,149L215,152L214,154L216,155L219,162L217,161L214,163L214,165L213,164L210,165L208,169L208,172L206,172L205,174L201,169L201,166L195,165L196,163L196,162L193,160L194,157L187,156L189,152L187,150L185,151L183,147L177,143L177,139L187,145L180,124L176,122L175,117L176,116L188,117L190,110L198,102L201,102L205,107L213,109Z"><title>Irauçuba</title></path><path fill="#15ab7a" d="M438,235L446,237L448,235L451,237L452,239L458,242L474,242L453,246L453,243L448,245L448,247L435,247L432,243L433,243L433,234L438,235Z"><title>Itaiçaba</title></path><path fill="#0e9d70" d="M358,164L357,167L356,167L355,165L350,165L351,159L355,158L356,147L359,134L362,137L364,138L363,154L360,157L360,160L358,164Z"><title>Itaitinga</title></path><path fill="#42d09d" d="M216,105L217,108L221,108L223,107L226,107L225,106L226,106L228,105L232,106L233,108L238,109L238,114L240,117L243,118L245,120L247,120L248,122L248,126L250,131L249,134L243,134L242,129L241,129L241,122L238,120L237,123L230,129L223,130L221,124L218,122L216,115L214,112L215,107L215,104L216,103L216,105Z"><title>Itapagé</title></path><path fill="#07855f" d="M248,45L254,50L251,50L251,53L250,52L244,54L245,53L243,52L241,53L241,52L239,52L239,57L237,61L239,64L238,66L240,68L240,73L249,86L248,87L250,90L252,95L245,100L239,99L239,100L233,100L226,106L225,106L226,107L223,107L221,108L217,108L216,105L216,104L215,103L213,109L205,101L208,97L204,90L204,85L206,84L208,79L210,76L210,71L214,67L211,58L215,57L219,47L225,46L226,46L231,43L233,37L241,42L244,45L248,45Z"><title>Itapipoca</title></path><path fill="#067454" d="M299,216L301,217L301,212L304,214L309,213L310,214L310,217L312,216L314,218L318,218L319,221L322,221L322,225L324,224L327,225L332,231L330,230L329,232L327,233L325,236L320,235L317,238L317,241L314,241L314,242L311,244L309,245L306,240L308,238L308,235L305,235L304,234L299,232L296,232L293,233L292,232L289,232L287,230L286,230L294,222L293,220L292,219L292,211L298,210L298,211L299,216Z"><title>Itapiúna</title></path><path fill="#0a9369" d="M186,11L192,13L214,28L214,29L194,42L194,46L193,49L189,53L191,55L189,61L184,58L180,56L178,52L180,47L178,44L179,39L181,36L180,30L181,19L185,9L186,11Z"><title>Itarema</title></path><path fill="#0a9268" d="M236,210L237,214L238,212L238,210L239,210L242,215L242,218L247,224L246,226L248,230L248,231L250,232L249,236L250,238L253,238L254,239L255,239L255,241L256,243L238,243L230,245L211,239L211,238L213,237L211,235L213,234L206,232L205,230L207,230L207,229L210,227L212,227L217,224L216,221L219,222L222,219L220,218L220,216L223,214L230,217L230,214L229,213L231,211L235,213L234,210L236,210Z"><title>Itatira</title></path><path fill="#45d19e" d="M337,308L340,308L338,311L363,332L358,336L362,340L360,344L352,345L349,348L347,352L350,353L340,367L340,371L340,372L332,373L331,375L327,376L313,352L314,336L313,332L312,331L312,318L321,313L326,305L331,302L337,302L337,308Z"><title>Jaguaretama</title></path><path fill="#10a374" d="M369,339L370,344L372,345L373,355L370,362L370,366L370,365L369,369L365,371L367,370L365,373L366,374L367,373L367,375L365,375L360,371L358,371L357,370L340,371L340,367L350,353L347,352L349,348L352,345L360,344L362,340L358,336L375,324L374,326L374,329L372,331L374,333L373,336L369,339Z"><title>Jaguaribara</title></path><path fill="#0c986c" d="M357,370L358,371L360,371L365,375L367,375L366,378L367,378L367,380L366,381L366,387L365,385L363,387L365,393L366,392L363,401L366,396L366,397L370,392L370,393L371,392L370,394L371,394L370,396L367,397L361,407L361,402L359,412L357,413L357,417L356,419L356,417L354,420L355,419L354,423L352,424L350,423L345,425L341,429L336,427L335,425L336,421L338,416L335,418L334,416L331,418L329,417L325,419L324,418L321,419L319,419L317,421L314,420L314,413L308,412L305,415L307,405L309,403L308,402L309,398L310,398L310,396L312,396L317,387L317,385L320,384L320,382L322,381L322,379L327,376L331,375L332,373L340,372L342,370L357,370Z"><title>Jaguaribe</title></path><path fill="#0d9c6f" d="M475,245L475,248L478,253L472,268L467,283L449,275L441,268L438,265L441,258L435,247L448,247L448,245L453,243L453,246L474,242L475,245Z"><title>Jaguaruana</title></path><path fill="#0e9f71" d="M293,606L284,618L281,618L276,614L271,616L271,613L268,611L264,611L263,610L256,606L256,585L278,591L280,598L293,606Z"><title>Jardim</title></path><path fill="#25bc89" d="M307,604L309,605L313,604L314,605L316,604L315,622L313,621L313,623L310,623L309,626L310,628L307,632L307,633L306,634L306,632L308,630L306,625L301,625L295,624L288,614L294,606L297,608L307,604Z"><title>Jati</title></path><path fill="#12a676" d="M121,9L120,14L123,15L124,20L126,21L127,23L113,21L111,20L112,13L108,12L105,8L107,6L111,4L113,2L113,1L115,0L121,2L120,4L121,9Z"><title>Jijoca de Jericoacoara</title></path><path fill="#088760" d="M271,541L273,543L272,544L276,544L278,546L277,548L277,551L276,551L275,556L259,562L258,556L256,554L256,548L259,545L259,541L265,542L267,539L271,541Z"><title>Juazeiro do Norte</title></path><path fill="#0b9469" d="M230,442L232,444L235,442L237,443L237,445L241,443L243,445L244,443L245,443L243,449L246,452L250,451L251,453L251,458L252,460L249,460L245,466L241,466L235,472L227,475L228,476L221,479L210,482L210,479L212,480L211,477L206,481L206,479L207,477L206,476L208,475L209,473L211,470L209,466L212,464L206,460L207,458L205,454L216,444L217,444L221,444L224,442L227,443L229,441L230,442Z"><title>Jucás</title></path><path fill="#0d9b6e" d="M321,485L322,486L320,489L321,492L323,496L328,499L324,500L326,508L319,510L316,510L308,511L305,510L305,511L300,512L299,515L293,517L293,519L291,519L289,523L287,521L281,519L281,515L279,511L280,506L286,493L297,489L294,486L295,485L296,487L300,485L305,485L307,484L312,478L312,473L313,475L317,475L318,477L318,479L321,485Z"><title>Lavras da Mangabeira</title></path><path fill="#067d5a" d="M403,273L419,287L422,288L422,287L427,287L430,289L436,299L454,307L453,311L454,314L436,314L431,309L428,308L418,300L409,303L401,301L398,297L397,299L399,301L398,304L396,298L400,283L400,274L403,273Z"><title>Limoeiro do Norte</title></path><path fill="#21b986" d="M230,245L238,243L256,243L256,244L258,246L263,242L264,242L266,244L259,249L259,253L257,257L259,264L257,269L259,272L258,275L255,273L254,269L253,268L249,270L250,271L244,272L242,274L244,278L239,283L224,282L226,281L227,277L225,275L227,273L227,270L225,265L221,260L222,258L220,256L220,253L218,251L211,250L210,248L212,247L212,246L210,244L212,242L211,239L230,245Z"><title>Madalena</title></path><path fill="#077e5b" d="M354,132L359,134L349,138L350,143L347,149L346,148L345,145L343,145L342,143L345,142L345,140L348,137L341,134L341,133L346,131L347,127L354,132Z"><title>Maracanaú</title></path><path fill="#098d65" d="M342,143L343,145L345,145L347,149L343,152L344,154L343,157L337,161L334,161L334,163L332,161L330,164L323,160L323,162L320,168L320,169L309,164L308,165L307,161L304,157L302,151L309,145L318,148L321,151L326,147L329,148L333,143L334,144L335,143L337,137L341,134L348,137L345,140L345,142L342,143Z"><title>Maranguape</title></path><path fill="#0f9f71" d="M133,52L138,51L140,52L145,44L145,47L148,48L151,46L159,40L158,38L160,36L168,42L177,54L166,51L162,52L148,63L143,60L143,65L136,62L134,63L132,61L129,61L122,51L121,48L121,46L117,42L114,41L116,35L125,43L130,44L132,46L133,52Z"><title>Marco</title></path><path fill="#32c692" d="M111,56L110,57L112,57L110,57L94,58L88,56L89,54L84,33L106,44L106,48L109,51L111,56Z"><title>Martinópole</title></path><path fill="#098d65" d="M135,72L135,77L139,78L144,87L145,89L146,88L146,97L140,101L141,103L140,105L131,103L130,101L125,98L126,94L124,92L120,92L118,89L110,92L111,90L108,87L113,76L126,73L128,75L131,74L135,72Z"><title>Massapê</title></path><path fill="#088a63" d="M346,555L350,555L353,559L357,558L360,565L353,580L354,580L354,582L351,584L352,585L346,585L348,589L345,593L345,599L338,601L337,606L330,603L317,585L329,556L330,557L334,558L343,557L346,555Z"><title>Mauriti</title></path><path fill="#17ae7c" d="M119,90L120,92L124,92L126,94L125,98L132,104L127,105L128,106L126,107L121,106L120,107L114,105L115,102L118,101L115,99L117,97L112,95L113,93L113,91L118,89L119,90Z"><title>Meruoca</title></path><path fill="#0d9b6f" d="M312,557L313,558L317,557L319,558L320,557L322,558L324,556L327,556L327,555L329,556L317,585L309,581L306,581L307,578L302,567L294,563L291,560L291,557L299,552L299,547L307,538L314,538L311,542L308,545L312,557Z"><title>Milagres</title></path><path fill="#16ac7b" d="M298,340L282,377L280,377L279,376L276,376L274,373L273,373L270,372L268,372L270,367L268,366L270,362L267,361L272,350L273,349L274,347L274,345L277,345L278,343L285,340L291,340L291,343L293,344L295,341L298,340L298,338L298,340Z"><title>Milhã</title></path><path fill="#16ac7b" d="M188,82L204,85L204,90L208,97L205,101L213,109L205,107L201,102L198,102L190,110L188,117L176,116L175,114L176,108L179,103L181,98L178,99L172,100L169,101L172,98L171,94L173,89L173,85L174,83L174,82L188,82Z"><title>Miraíma</title></path><path fill="#10a374" d="M283,544L285,544L288,547L290,547L291,548L293,546L296,545L299,547L299,552L291,557L291,560L292,562L291,563L292,565L289,569L290,571L292,581L292,585L290,586L283,584L278,591L270,589L270,578L274,564L273,563L273,556L275,556L276,551L277,551L277,548L283,544Z"><title>Missão Velha</title></path><path fill="#12a677" d="M200,348L206,351L209,349L209,351L215,352L218,355L220,353L223,353L223,357L227,355L229,353L231,353L238,356L240,354L242,354L243,358L248,359L245,363L243,363L242,366L240,368L233,382L234,385L232,397L228,399L227,401L221,398L219,402L218,405L214,403L212,403L211,405L210,404L209,403L212,399L206,404L203,405L201,404L199,405L199,407L192,414L189,414L189,412L184,415L182,413L187,411L189,408L189,407L191,406L193,403L198,399L198,393L196,394L196,392L193,391L195,389L194,388L189,390L182,386L185,385L187,381L179,379L178,375L176,374L177,369L176,366L173,365L171,361L173,357L175,357L176,355L180,356L183,354L183,357L186,356L185,355L186,355L187,356L189,357L193,356L193,357L196,355L196,352L200,348Z"><title>Mombaça</title></path><path fill="#0b966b" d="M187,244L186,249L185,248L186,252L184,255L187,260L191,264L181,269L182,281L181,281L181,282L177,288L157,298L157,296L159,296L161,293L161,289L158,287L160,286L158,282L159,281L164,280L165,277L163,277L163,275L161,276L160,274L157,273L157,269L153,265L156,264L159,265L164,261L164,258L159,253L161,252L164,246L170,242L187,244Z"><title>Monsenhor Tabosa</title></path><path fill="#088861" d="M397,224L400,226L390,236L389,237L386,236L382,240L382,241L378,245L376,247L374,247L374,248L368,254L373,256L373,259L375,260L382,258L385,260L388,259L391,262L394,262L400,274L400,283L396,298L398,302L386,312L385,314L386,316L383,318L382,321L378,321L377,323L376,323L363,332L338,311L340,308L337,308L337,302L339,302L339,305L342,305L350,296L349,285L366,288L365,283L367,279L364,275L365,273L364,272L364,271L374,268L375,270L376,270L372,261L369,261L369,262L366,262L363,263L353,261L348,265L348,268L346,269L347,267L344,261L346,258L351,256L353,253L355,252L355,248L361,245L362,244L360,240L361,237L364,234L369,233L370,234L371,233L378,224L381,224L381,219L379,217L382,214L397,224Z"><title>Morada Nova</title></path><path fill="#68e0b2" d="M98,71L103,73L99,76L100,78L103,78L107,78L106,82L111,83L108,87L111,90L109,94L108,93L94,93L94,91L91,91L89,92L82,90L71,94L75,86L72,79L76,80L78,79L81,80L86,82L88,80L87,75L91,77L93,75L94,72L98,71Z"><title>Moraújo</title></path><path fill="#1cb381" d="M180,59L186,67L185,69L179,73L169,73L166,72L167,66L161,66L159,65L156,67L153,65L135,67L135,62L143,65L143,60L148,63L162,52L166,51L177,54L180,59Z"><title>Morrinhos</title></path><path fill="#5bdbab" d="M89,129L94,133L89,138L89,142L94,144L94,147L91,146L87,148L83,146L75,146L74,142L78,142L80,137L71,139L71,137L70,138L71,137L69,137L69,135L75,135L78,131L82,135L85,130L89,129Z"><title>Mucambo</title></path><path fill="#a8f2d2" d="M306,180L310,192L309,192L307,197L304,199L302,199L296,196L299,193L299,192L297,192L296,189L298,188L297,188L299,188L298,186L300,186L300,185L301,188L302,185L303,184L302,184L300,184L303,183L302,181L299,180L301,181L305,178L306,180Z"><title>Mulungu</title></path><path fill="#5edcad" d="M217,530L218,531L224,530L223,531L230,533L230,537L227,538L227,554L216,549L209,540L208,533L209,531L208,529L213,528L217,530Z"><title>Nova Olinda</title></path><path fill="#1db583" d="M131,221L122,243L112,258L110,257L110,266L98,251L97,244L97,243L95,240L96,238L95,238L99,230L102,229L104,227L104,222L114,215L131,221Z"><title>Nova Russas</title></path><path fill="#46d29f" d="M105,335L100,343L102,347L99,349L100,352L98,354L99,356L99,358L96,361L98,363L100,363L98,365L100,366L101,369L98,367L98,365L96,365L94,361L91,359L91,357L84,367L80,369L79,369L72,373L64,373L63,370L64,368L60,361L64,359L65,354L63,348L61,345L62,337L63,336L65,336L69,339L72,337L76,337L79,339L81,339L82,337L86,338L87,335L91,335L91,336L92,335L92,333L95,333L97,330L108,330L105,335Z"><title>Novo Oriente</title></path><path fill="#13a878" d="M369,201L372,203L372,200L382,211L382,214L379,217L381,219L381,224L378,224L373,231L370,234L369,233L364,234L361,237L353,236L351,234L346,221L349,219L350,217L347,212L347,209L352,205L355,204L360,199L360,198L369,201Z"><title>Ocara</title></path><path fill="#6ce1b4" d="M310,412L314,413L314,420L317,421L319,419L321,419L324,418L325,419L327,417L323,432L325,436L322,439L317,443L313,441L310,445L305,445L304,446L305,450L297,449L295,450L292,448L286,453L286,451L290,444L292,444L296,439L295,435L302,430L306,418L305,415L310,412Z"><title>Orós</title></path><path fill="#088b63" d="M362,169L364,170L379,170L378,180L372,181L369,182L361,180L360,181L356,181L350,175L350,171L356,168L362,169Z"><title>Pacajus</title></path><path fill="#0b966b" d="M359,136L355,158L351,153L348,155L346,153L344,154L343,152L347,149L348,149L348,147L350,143L349,138L358,134L359,134L359,136Z"><title>Pacatuba</title></path><path fill="#55d8a8" d="M310,168L311,169L309,170L310,171L315,170L317,173L320,172L322,180L318,182L317,185L316,185L316,187L314,183L310,181L310,178L309,178L309,175L307,173L308,169L310,168Z"><title>Pacoti</title></path><path fill="#70e3b6" d="M96,145L95,148L97,149L96,153L92,159L89,160L86,148L91,146L94,147L94,144L96,145Z"><title>Pacujá</title></path><path fill="#1eb784" d="M429,225L430,229L430,231L428,232L428,234L433,234L433,243L432,243L439,254L421,257L419,253L421,249L419,246L416,243L415,240L409,235L404,230L413,229L414,226L416,225L422,226L424,227L427,226L429,225Z"><title>Palhano</title></path><path fill="#29c08c" d="M328,163L331,164L332,161L334,163L333,168L329,168L328,170L327,170L327,172L320,174L320,172L317,173L315,170L313,170L312,171L309,170L311,169L309,168L310,168L309,164L320,169L320,168L323,162L323,160L328,163Z"><title>Palmácia</title></path><path fill="#0b946a" d="M303,77L306,79L311,85L310,87L306,91L307,95L304,97L301,96L299,96L293,95L291,96L289,94L294,94L296,93L281,93L282,90L284,87L287,88L288,86L287,82L289,82L289,79L292,78L294,79L295,78L294,77L297,78L303,77Z"><title>Paracuru</title></path><path fill="#1bb381" d="M282,68L285,70L288,70L291,75L295,78L292,78L289,80L289,82L287,82L288,86L287,88L284,87L281,91L267,91L267,90L269,88L270,85L271,77L269,75L271,73L270,72L275,71L276,71L280,68L282,68Z"><title>Paraipaba</title></path><path fill="#10a273" d="M117,400L120,404L117,406L117,412L111,422L117,428L116,433L111,437L104,439L104,442L102,445L102,446L105,445L106,447L110,445L111,446L119,444L124,444L127,441L137,453L136,454L133,454L134,455L131,457L131,459L129,462L122,464L120,468L112,470L108,471L106,471L101,479L98,478L94,479L93,478L86,477L84,473L79,466L77,451L80,445L80,443L79,440L76,438L71,430L72,419L71,415L77,415L77,414L84,414L86,411L86,409L93,403L101,401L103,401L103,403L104,401L109,403L113,401L115,401L117,400Z"><title>Parambu</title></path><path fill="#0e9f71" d="M277,158L280,160L281,163L278,163L276,169L270,169L266,170L262,175L260,175L260,176L241,188L239,185L239,182L231,179L232,174L236,171L238,166L251,164L252,165L256,166L257,164L256,163L272,162L275,158L277,158Z"><title>Paramoti</title></path><path fill="#0e9d70" d="M175,318L176,320L177,319L178,321L186,319L184,322L186,324L190,327L193,324L197,323L200,325L200,326L201,325L202,327L205,324L208,323L209,324L211,323L212,324L214,322L219,322L220,324L219,325L218,325L219,328L220,332L222,333L223,336L233,343L230,343L229,344L227,350L224,353L220,353L218,355L215,352L210,352L209,349L206,351L200,348L196,352L196,355L193,357L193,356L189,357L187,356L186,355L185,355L186,356L183,357L183,354L180,356L176,355L175,357L173,357L171,361L173,365L175,366L172,366L172,364L169,363L168,361L171,357L170,357L171,353L170,353L171,352L168,350L173,348L176,344L176,342L174,340L174,338L171,338L172,335L171,335L170,331L169,330L171,322L174,320L175,318Z"><title>Pedra Branca</title></path><path fill="#75e4b9" d="M306,625L308,630L306,632L306,634L302,633L300,630L299,631L295,631L294,633L291,636L291,629L289,623L284,618L288,614L295,624L301,625L306,625Z"><title>Penaforte</title></path><path fill="#0d9c6f" d="M302,113L308,117L307,123L305,125L305,129L302,131L304,135L305,139L307,140L307,142L309,145L302,151L299,160L294,160L277,158L279,152L279,149L278,147L279,144L275,140L276,137L275,135L268,141L265,142L264,144L259,131L257,134L255,135L253,137L250,135L248,135L250,131L249,130L248,125L252,124L253,122L257,123L258,119L260,120L262,118L268,119L275,114L284,115L302,113Z"><title>Pentecoste</title></path><path fill="#55d9a8" d="M369,378L366,388L368,388L368,387L370,385L373,388L375,387L377,402L374,404L376,409L371,413L372,414L370,416L367,420L368,421L364,425L364,426L361,426L361,429L362,430L358,431L356,428L353,427L352,424L354,423L356,417L356,419L357,417L357,413L359,412L361,402L361,407L367,397L370,396L371,394L370,394L371,392L370,393L370,392L366,397L366,396L364,400L363,401L363,400L366,392L365,393L363,387L365,385L366,387L366,381L367,380L367,378L366,378L367,377L366,376L369,375L369,378Z"><title>Pereiro</title></path><path fill="#0d9a6e" d="M394,159L394,161L390,160L391,165L380,162L381,160L388,153L395,155L394,159Z"><title>Pindoretama</title></path><path fill="#0c986c" d="M245,368L246,369L248,368L261,375L260,378L259,381L262,382L262,383L258,385L259,387L258,387L258,389L255,391L258,393L256,396L258,396L257,400L251,399L250,401L246,400L242,401L236,399L234,404L233,404L231,400L234,385L233,382L240,368L241,368L243,365L243,366L245,366L245,368Z"><title>Piquet Carneiro</title></path><path fill="#0fa072" d="M104,177L109,179L113,184L116,182L121,178L123,183L120,185L118,189L108,191L101,190L100,191L97,189L95,190L94,189L90,188L91,185L90,182L91,180L92,178L104,177Z"><title>Pires Ferreira</title></path><path fill="#0d9c6f" d="M26,225L30,224L30,226L32,225L35,227L40,227L44,229L54,234L56,238L57,238L58,241L67,241L69,238L72,236L69,239L69,243L67,246L68,259L69,260L62,263L60,262L54,266L48,273L46,280L38,280L36,275L34,276L30,270L28,269L27,271L25,269L24,265L24,263L22,261L23,259L23,255L27,249L22,246L31,235L24,229L24,228L25,224L23,224L25,224L26,225Z"><title>Poranga</title></path><path fill="#0fa072" d="M298,605L299,607L297,608L294,606L293,606L280,598L278,591L283,584L291,589L298,595L298,605Z"><title>Porteiras</title></path><path fill="#d1fae5" d="M170,528L182,528L184,529L184,538L190,536L191,534L192,539L190,540L188,539L178,547L171,546L160,542L157,533L165,529L166,526L167,526L168,528L170,528Z"><title>Potengi</title></path><path fill="#79e6bb" d="M402,356L408,359L409,361L417,361L416,368L417,368L421,368L417,375L413,379L411,388L407,393L406,391L409,389L408,385L398,381L399,379L396,377L395,369L396,369L394,364L395,360L397,357L399,357L399,356L402,356Z"><title>Potiretama</title></path><path fill="#0b956a" d="M98,366L98,367L100,369L101,369L101,368L103,369L106,370L110,367L109,370L108,369L106,371L107,382L104,381L99,384L97,382L94,384L93,386L95,391L92,391L88,395L89,398L88,398L84,400L85,401L86,406L88,407L86,409L86,411L84,414L77,414L77,415L71,415L69,409L64,408L65,405L69,398L68,392L66,390L64,373L72,373L79,369L80,369L84,367L91,357L91,359L94,361L96,365L98,366Z"><title>Quiterianópolis</title></path><path fill="#07835e" d="M302,235L302,236L304,235L308,235L308,238L306,240L309,245L311,244L314,242L314,241L317,241L318,237L327,245L320,257L318,258L312,255L312,259L316,264L317,269L339,265L346,269L347,272L346,274L342,278L341,284L345,283L349,284L350,292L346,292L340,289L334,289L332,287L328,287L326,285L314,298L306,295L300,298L295,296L292,296L292,297L285,294L284,295L281,293L282,292L281,290L284,290L282,288L283,286L282,285L283,283L279,282L278,278L277,279L276,278L274,279L273,275L274,272L276,272L277,273L279,272L279,270L282,268L282,265L283,265L287,260L287,257L289,258L290,256L292,257L292,256L292,255L293,255L294,252L297,250L296,248L294,248L293,249L291,247L289,247L293,243L297,241L298,235L302,235Z"><title>Quixadá</title></path><path fill="#05644a" d="M300,402L301,405L304,406L303,412L306,418L302,430L295,435L294,432L292,432L286,436L284,434L272,437L270,436L267,437L265,436L265,432L268,432L269,430L267,429L268,425L268,424L264,424L270,418L285,421L292,417L291,413L293,409L295,408L296,405L298,406L298,403L299,403L300,402Z"><title>Quixelô</title></path><path fill="#07805c" d="M265,261L264,262L266,262L268,266L271,267L274,271L273,277L277,279L278,278L279,282L283,283L282,285L283,286L282,288L284,290L281,290L282,292L281,293L284,295L285,294L286,295L290,296L295,304L296,305L299,305L297,308L298,311L295,314L292,327L295,329L293,338L295,341L293,344L291,343L291,340L284,341L278,343L277,345L274,345L274,347L271,351L270,350L271,347L269,346L267,343L264,341L256,343L244,337L236,324L232,324L231,327L229,328L228,327L227,328L223,327L219,322L220,319L223,319L225,317L224,309L236,292L230,289L228,289L225,287L223,284L224,282L239,283L244,278L242,274L244,272L250,271L249,270L253,268L254,269L255,273L258,275L259,272L257,269L259,264L257,257L259,255L260,251L259,254L261,256L264,257L265,261Z"><title>Quixeramobim</title></path><path fill="#0e9d6f" d="M440,274L441,275L444,274L448,276L449,275L467,283L461,286L460,290L456,294L453,303L454,307L436,299L430,289L427,287L422,287L422,288L419,287L426,279L433,278L440,272L440,274Z"><title>Quixeré</title></path><path fill="#0a9469" d="M329,171L330,173L332,173L332,174L335,174L336,173L338,181L337,182L335,189L342,187L340,193L340,199L338,200L334,196L332,190L328,189L329,186L328,185L327,186L326,183L323,183L321,181L322,180L320,174L327,172L327,170L328,170L329,171Z"><title>Redenção</title></path><path fill="#19b17f" d="M113,173L110,173L102,178L92,178L87,177L89,172L88,169L93,158L96,153L107,158L114,158L119,163L111,164L113,169L113,173Z"><title>Reriutaba</title></path><path fill="#088b63" d="M409,235L415,240L416,243L419,246L421,249L419,253L421,257L439,254L441,258L438,265L441,268L449,275L448,276L444,274L441,275L440,272L435,277L426,279L419,287L403,273L400,274L393,262L391,262L388,259L385,260L382,258L375,260L373,259L373,256L368,254L374,248L374,247L376,247L378,245L382,241L382,240L386,236L389,237L390,236L400,226L409,235Z"><title>Russas</title></path><path fill="#0e9e70" d="M207,432L209,431L211,430L211,429L213,429L211,434L211,437L212,436L214,446L205,454L207,458L206,460L212,464L209,466L211,470L209,473L208,475L206,476L207,477L205,480L211,477L212,480L210,479L206,481L204,486L198,490L198,487L193,488L193,486L186,490L185,492L180,488L180,486L177,488L174,486L171,487L170,487L173,482L172,481L170,480L172,478L172,476L174,475L173,472L174,470L171,468L170,464L172,458L174,457L168,453L167,448L170,448L174,443L177,444L179,443L181,445L184,444L187,445L187,446L191,448L196,447L199,441L198,439L200,438L200,435L202,435L201,433L203,433L204,430L203,428L207,429L207,432Z"><title>Saboeiro</title></path><path fill="#27bf8b" d="M162,530L162,531L157,533L156,537L148,542L147,544L145,546L144,550L146,553L146,556L144,560L147,567L145,565L138,566L134,570L132,572L128,574L123,574L112,568L114,565L114,556L117,544L116,543L120,538L122,538L122,539L137,544L137,538L145,537L151,531L161,528L162,530Z"><title>Salitre</title></path><path fill="#0e9d70" d="M163,66L167,66L166,72L169,73L179,73L178,78L174,81L172,86L173,89L171,94L172,98L162,107L163,110L163,113L158,110L155,111L154,111L155,109L151,105L153,103L150,102L149,99L145,99L144,98L146,97L146,88L145,89L144,87L139,78L135,77L135,67L153,65L156,67L159,65L163,66Z"><title>Santana do Acaraú</title></path><path fill="#11a575" d="M209,531L208,535L209,537L209,540L214,547L216,549L227,554L227,582L224,581L221,574L215,571L210,569L199,569L196,569L191,570L192,545L190,540L192,539L191,534L193,536L195,534L204,531L205,535L206,535L207,532L209,531Z"><title>Santana do Cariri</title></path><path fill="#099066" d="M160,155L160,156L164,157L165,158L167,159L170,159L172,162L176,163L179,163L179,165L181,165L181,166L183,168L191,170L195,169L197,166L201,166L204,173L206,174L204,176L206,180L205,181L206,183L211,186L210,189L212,192L211,192L211,193L214,195L213,200L212,200L210,202L208,202L211,206L211,210L212,212L208,215L207,219L209,220L215,220L217,224L212,227L210,227L207,229L207,230L205,230L207,233L213,234L211,235L213,237L211,238L210,242L202,240L203,246L200,243L195,244L192,251L188,250L186,249L187,244L170,242L169,240L170,239L167,239L167,237L164,235L163,228L162,228L164,226L168,225L170,223L172,224L174,223L177,217L177,213L172,209L165,212L165,214L166,215L164,216L162,215L161,216L155,215L151,210L146,211L145,207L140,201L137,195L138,187L140,185L122,184L123,183L121,179L122,172L124,172L124,170L123,164L124,163L131,163L135,148L139,144L154,147L160,155Z"><title>Santa Quitéria</title></path><path fill="#0a9268" d="M72,151L73,152L72,154L72,158L71,161L72,165L76,167L71,170L71,171L69,172L67,171L65,172L67,170L66,165L60,159L49,160L45,158L41,160L35,167L38,161L37,160L39,158L39,157L30,155L32,152L38,150L41,153L43,151L57,150L66,151L72,149L73,150L72,151Z"><title>São Benedito</title></path><path fill="#098e66" d="M323,95L326,95L323,98L317,113L312,110L312,112L310,112L307,116L302,113L284,115L275,114L274,112L274,110L275,103L269,100L263,99L264,98L264,93L265,94L267,91L281,91L281,93L296,93L294,94L289,94L291,96L293,95L299,96L301,96L304,97L307,95L306,91L310,87L311,85L313,90L316,90L323,95Z"><title>São Gonçalo do Amarante</title></path><path fill="#22ba87" d="M401,317L405,319L407,322L398,326L394,326L394,328L389,326L388,326L387,328L384,328L378,322L378,321L382,321L383,318L386,316L385,314L387,310L397,303L400,308L399,313L401,317Z"><title>São João do Jaguaribe</title></path><path fill="#16ac7b" d="M274,111L275,114L268,119L268,111L264,110L263,99L269,100L275,103L274,111Z"><title>São Luís do Curu</title></path><path fill="#064e3b" d="M222,325L223,327L229,328L231,327L232,324L236,324L244,337L256,343L264,341L267,343L269,346L271,347L270,350L271,351L267,361L270,362L268,366L270,367L268,372L267,372L261,375L248,368L246,369L245,366L243,366L243,363L245,363L248,359L243,358L242,354L240,354L238,356L234,354L229,353L227,355L223,357L223,353L227,350L229,344L230,343L233,343L223,336L218,325L219,325L220,324L222,325Z"><title>Senador Pompeu</title></path><path fill="#32c793" d="M125,56L127,57L129,61L132,61L135,63L135,72L131,74L128,75L126,73L113,76L111,83L106,82L107,78L110,78L109,76L114,73L115,71L117,69L118,65L117,62L117,60L110,57L109,51L106,48L106,44L114,40L117,42L121,46L121,48L125,56Z"><title>Senador Sá</title></path><path fill="#067b59" d="M145,99L149,99L150,102L153,103L151,105L155,109L154,111L155,111L158,110L163,113L163,110L162,107L169,101L172,100L178,99L181,98L176,111L176,120L176,122L180,124L187,145L177,139L178,144L183,147L185,151L187,150L189,152L187,156L194,157L193,160L196,162L196,163L195,165L197,166L195,169L191,170L183,168L181,166L181,165L179,165L179,163L176,163L171,161L170,159L167,159L166,158L165,158L164,157L160,156L154,147L161,138L160,136L162,129L162,128L161,128L162,123L162,115L148,114L147,118L149,118L150,122L148,123L146,123L144,122L142,120L142,123L140,121L139,122L140,125L138,126L134,124L131,135L129,127L126,128L117,133L111,133L105,135L101,132L99,129L94,131L94,133L88,129L89,127L96,127L101,108L111,109L113,108L113,107L114,107L116,106L115,106L126,107L128,106L127,105L132,104L140,105L141,103L140,101L142,100L143,98L145,99Z"><title>Sobral</title></path><path fill="#0c976c" d="M314,336L313,352L327,376L322,379L322,381L320,382L320,384L317,385L317,387L312,396L310,396L310,398L309,398L308,402L309,403L307,405L307,408L305,415L303,412L304,406L301,405L300,402L299,403L298,403L298,405L297,406L296,405L295,402L289,400L288,401L288,399L286,400L284,397L281,397L280,392L281,386L279,385L298,338L301,341L302,340L305,342L311,338L312,334L313,334L314,336Z"><title>Solonópole</title></path><path fill="#1ab27f" d="M409,303L418,300L428,308L431,309L436,314L453,314L446,319L444,324L444,328L442,332L403,331L407,322L405,319L400,317L401,316L399,313L400,308L398,304L399,301L397,298L398,297L401,301L409,303Z"><title>Tabuleiro do Norte</title></path><path fill="#3ccd99" d="M152,251L155,250L158,253L159,253L164,258L164,261L159,265L156,264L153,265L157,269L157,273L160,274L161,276L163,275L163,277L165,277L164,280L159,281L158,282L160,286L158,287L161,289L161,293L159,296L157,297L156,299L154,299L154,298L150,296L149,296L147,298L144,297L140,298L139,297L126,306L131,290L128,289L122,281L120,283L110,279L107,279L103,271L98,267L110,266L110,257L112,258L122,243L131,221L135,235L138,238L138,240L140,242L138,243L144,249L152,251Z"><title>Tamboril</title></path><path fill="#aff3d5" d="M210,482L215,483L219,482L223,493L222,495L227,495L226,496L228,496L225,501L221,503L220,502L219,502L221,505L216,506L215,502L212,501L210,503L206,503L192,507L193,505L189,498L204,486L206,481L210,479L210,482Z"><title>Tarrafas</title></path><path fill="#2cc28e" d="M172,338L174,338L174,340L176,342L176,344L173,348L168,350L171,352L170,353L171,355L170,357L171,357L169,361L169,363L172,364L172,366L176,365L176,366L177,369L176,374L178,375L179,379L187,381L185,385L182,386L189,390L193,388L195,388L193,391L196,392L196,394L198,393L198,399L193,403L191,406L189,407L189,408L187,411L182,413L183,415L182,415L176,415L175,414L172,415L172,414L167,417L162,416L158,417L157,419L153,420L152,419L150,420L148,419L146,421L141,428L140,428L124,444L119,444L111,446L110,445L106,447L105,445L102,446L102,445L104,442L104,439L111,437L116,433L117,428L111,422L117,412L117,406L120,404L116,400L115,401L113,401L109,403L104,401L103,403L103,401L101,401L91,404L88,407L86,406L85,401L84,400L88,398L89,398L88,395L92,391L95,391L93,390L93,386L94,384L97,382L99,384L104,381L108,382L112,379L114,379L113,380L117,381L118,380L122,380L126,378L132,370L138,370L142,372L147,367L147,366L149,366L151,364L149,360L148,354L150,353L149,351L156,347L157,345L160,345L162,346L164,344L164,334L166,332L169,327L170,327L169,330L170,331L171,335L172,335L171,338L172,338Z"><title>Tauá</title></path><path fill="#3ece9b" d="M241,122L241,129L242,129L243,134L249,134L242,149L242,152L239,152L234,165L228,164L226,162L224,162L224,161L219,160L219,162L216,155L214,154L215,152L214,149L212,148L214,145L213,142L213,140L212,138L213,138L212,136L216,131L220,130L222,129L224,131L226,129L230,129L237,123L238,120L241,122Z"><title>Tejuçuoca</title></path><path fill="#088b63" d="M66,111L68,117L66,124L59,128L56,132L52,132L48,133L46,132L36,132L30,138L27,139L22,139L22,137L19,135L18,130L15,130L21,124L20,122L21,118L23,117L23,116L25,117L28,114L29,115L34,114L38,116L43,113L46,110L48,110L51,107L64,98L68,93L67,92L69,90L67,89L67,88L69,87L70,83L72,81L71,79L75,86L71,94L65,99L66,111Z"><title>Tianguá</title></path><path fill="#088b63" d="M259,49L263,53L271,55L282,68L280,68L276,71L275,71L270,72L271,73L269,75L271,77L269,88L267,90L266,92L265,94L264,93L264,98L263,99L258,99L255,99L257,96L258,95L260,93L261,89L248,79L242,77L239,71L240,68L238,66L239,64L237,61L239,57L239,52L241,52L241,53L243,52L245,53L244,54L250,52L251,53L251,50L254,50L256,49L259,49Z"><title>Trairi</title></path><path fill="#45d19f" d="M255,99L253,103L258,110L246,109L245,107L250,105L241,102L239,99L245,100L252,95L250,90L248,87L249,86L246,82L244,77L261,89L260,93L258,95L257,96L255,99Z"><title>Tururu</title></path><path fill="#2ac18d" d="M72,125L80,125L81,126L80,130L79,130L79,132L75,135L66,135L66,138L63,138L61,140L55,138L24,148L25,145L24,141L22,139L27,139L30,138L36,132L46,132L48,133L52,132L56,132L59,128L65,124L72,125Z"><title>Ubajara</title></path><path fill="#70e3b6" d="M351,469L347,475L348,478L345,481L346,485L344,487L343,491L327,485L322,486L318,479L318,477L317,475L320,477L328,477L330,479L336,476L335,474L339,472L341,473L349,469L351,469Z"><title>Umari</title></path><path fill="#45d19f" d="M261,99L263,99L264,110L268,111L268,119L262,118L260,120L258,119L257,123L253,122L252,124L248,125L247,120L245,120L239,115L238,110L245,107L246,109L258,110L253,103L255,99L261,99Z"><title>Umirim</title></path><path fill="#11a374" d="M243,108L238,110L238,109L233,108L232,106L228,105L233,100L239,100L239,99L241,102L250,105L243,108Z"><title>Uruburetama</title></path><path fill="#d7dee8" d="M91,57L94,58L112,57L117,60L117,69L115,71L114,73L109,76L110,78L103,78L100,78L99,76L103,73L98,71L94,72L93,75L91,77L87,75L88,80L86,82L81,80L78,79L76,80L71,79L75,72L73,72L68,73L68,72L71,70L71,66L75,64L76,61L73,60L75,59L73,57L74,56L73,56L74,53L91,57Z"><title>Uruoca</title></path><path fill="#11a475" d="M122,172L121,178L116,182L113,184L107,178L104,177L102,178L110,173L113,173L113,169L111,164L119,163L124,163L123,169L124,170L124,172L122,172Z"><title>Varjota</title></path><path fill="#11a475" d="M275,477L276,478L280,479L281,480L279,483L280,483L280,486L284,486L286,489L286,491L289,492L286,493L280,506L279,511L276,512L268,514L254,518L250,515L242,515L243,513L242,512L243,510L242,507L239,508L238,504L240,497L243,497L244,499L247,501L250,500L250,499L252,497L254,499L257,497L257,499L258,498L261,499L265,497L265,495L262,495L260,493L262,490L263,488L266,487L267,484L267,481L265,479L263,478L263,476L265,473L273,475L275,477Z"><title>Várzea Alegre</title></path><path fill="#0b966b" d="M33,68L34,72L37,72L47,76L46,77L51,78L68,93L61,100L51,107L49,109L38,116L34,114L29,115L28,114L25,117L18,114L17,113L10,112L11,105L10,100L8,100L7,98L7,97L11,96L12,94L13,89L17,87L22,88L24,85L25,85L32,63L33,68Z"><title>Viçosa do Ceará</title></path></g></svg>